#tb 0: 2/25
0,          0,          0,        1,   608256, 0x3b69ed4c
0,          1,          1,        1,   608256, 0x0e09d9a1
0,          2,          2,        1,   608256, 0x2edb143c
0,          3,          3,        1,   608256, 0xb5084f1e
0,          4,          4,        1,   608256, 0x8be7da2d
